# xmcd
#
# Track frame offsets: 
#        150
#        17113
#        33148
#        49592
#        69101
#        86208
#        96284
#
# Disc length: 1403 seconds
#
# Revision: 0
# Processed by: cddbd v1.5.2PL0 Copyright (c) Steve Scherf et al.
# Submitted via: ExactAudioCopy v0.95a4
#
DISCID=4d057907
DTITLE=Henry Wagons - Expecting Company?
DYEAR=2012
DGENRE=Alt. Country
TTITLE0=Unwelcome Company
TTITLE1=I'm in Love with Mary Magdalene
TTITLE2=Give Things a Chance to Mend
TTITLE3=I Still Can't Find Her
TTITLE4=A Hangman's Work Is Never Done
TTITLE5=Give Me a Kiss
TTITLE6=Marylou Two
EXTD=
EXTT0=
EXTT1=
EXTT2=
EXTT3=
EXTT4=
EXTT5=
EXTT6=
PLAYORDER=
